<svg xmlns="http://www.w3.org/2000/svg" viewBox="0 0 215.01 131.29"><defs><style>.cls-1{fill:#25a9e0;}.cls-2{fill:#08457e;}.cls-3{fill:#036;}</style></defs><title>logo</title><g id="Layer_12" data-name="Layer 12"><circle class="cls-1" cx="84.59" cy="80.1" r="3.28"/><rect class="cls-1" x="61.87" y="76.83" width="19.08" height="6.56" rx="3.28" transform="translate(142.81 160.21) rotate(180)"/><circle class="cls-2" cx="61.91" cy="88.85" r="3.28"/><rect class="cls-2" x="39.14" y="85.57" width="19.08" height="6.56" rx="3.28" transform="translate(97.36 177.7) rotate(-180)"/><circle class="cls-2" cx="68.89" cy="88.8" r="3.28"/><circle class="cls-2" cx="75.86" cy="88.85" r="3.28"/><circle class="cls-1" cx="31.53" cy="97.55" r="3.28"/><circle class="cls-2" cx="66.98" cy="97.55" r="3.28"/><rect class="cls-2" x="44.26" y="94.27" width="19.08" height="6.56" rx="3.28" transform="translate(107.6 195.1) rotate(180)"/><circle class="cls-2" cx="40.63" cy="97.55" r="3.28"/><circle class="cls-2" cx="75.44" cy="71.38" r="3.28"/><rect class="cls-2" x="79.08" y="68.1" width="19.08" height="6.56" rx="3.28"/><circle class="cls-1" cx="52.53" cy="71.4" r="3.28"/><circle class="cls-1" cx="59.5" cy="71.36" r="3.28"/><circle class="cls-1" cx="66.47" cy="71.4" r="3.28"/><path class="cls-3" d="M107.94,78.1a12.46,12.46,0,0,1,9.49-3.8A12.74,12.74,0,0,1,127,78.1a14,14,0,0,1,.08,18.82,14.08,14.08,0,0,1-19.18,0,14.14,14.14,0,0,1,0-18.82Zm9.55,1.9a6.2,6.2,0,0,0-5.06,2.21,8,8,0,0,0-1.82,5.29,7.92,7.92,0,0,0,1.82,5.26,7,7,0,0,0,10.11,0,8.27,8.27,0,0,0-.1-10.5A6.2,6.2,0,0,0,117.49,80Z"/><path class="cls-3" d="M152.4,64.24h6.27v35.88h-5.86l-.41-3.49q-2.61,4.07-8.16,4.06a12.89,12.89,0,0,1-9.37-3.57q-3.68-3.57-3.67-9.68,0-6.36,3.57-9.8a12.87,12.87,0,0,1,9.32-3.44,12.1,12.1,0,0,1,4.75,1.1,7.13,7.13,0,0,1,3.56,3Zm-7.75,15.81a7,7,0,0,0-5.13,2,7.2,7.2,0,0,0-2.06,5.36,7.3,7.3,0,0,0,2.08,5.37,7,7,0,0,0,5.11,2.08,7.21,7.21,0,0,0,5.21-2.06,7.76,7.76,0,0,0,0-10.7A7.24,7.24,0,0,0,144.65,80.05Z"/><path class="cls-3" d="M185.61,89.7H165.84a5.63,5.63,0,0,0,2.31,3.91,8.59,8.59,0,0,0,5.24,1.48,12.07,12.07,0,0,0,3.8-.64,7.15,7.15,0,0,0,3-1.72l4,4a12.14,12.14,0,0,1-4.88,3,17.89,17.89,0,0,1-6,1.05q-6.47,0-10.19-3.67t-3.72-9.83a13,13,0,0,1,3.67-9.55,13.16,13.16,0,0,1,9.78-3.7q6.51,0,10,4T185.61,89.7ZM166,84.52H179.6a5.08,5.08,0,0,0-2-3.67A7.53,7.53,0,0,0,173,79.59a8,8,0,0,0-4.52,1.26A6.2,6.2,0,0,0,166,84.52Z"/><path class="cls-3" d="M54.92,36.67l-3.49,4.1a8.83,8.83,0,0,0-6.26-2.26q-4.62,0-4.62,2.52c0,1.64,1.57,2.57,4.72,2.77,1.13.07,2.13.17,3,.31a16.34,16.34,0,0,1,2.85.75,8.24,8.24,0,0,1,2.57,1.38,6.69,6.69,0,0,1,1.72,2.28,7.77,7.77,0,0,1,.69,3.39,7.42,7.42,0,0,1-2.85,5.93c-1.9,1.6-4.57,2.39-8,2.39a20.48,20.48,0,0,1-6.32-.92,13.38,13.38,0,0,1-5.39-3.6l3.08-4.46a10,10,0,0,0,3.91,2.46,14.19,14.19,0,0,0,4.82,1.08A5.58,5.58,0,0,0,48.53,54a2.57,2.57,0,0,0,1.36-2.21,2,2,0,0,0-1.15-1.9,10.06,10.06,0,0,0-3.88-.77,21.37,21.37,0,0,1-3.7-.59,15.61,15.61,0,0,1-3.31-1.28,6.36,6.36,0,0,1-2.54-2.39,6.84,6.84,0,0,1-.92-3.6,6.76,6.76,0,0,1,1-3.69A7,7,0,0,1,38,35.07a14.05,14.05,0,0,1,3.41-1.3,15.43,15.43,0,0,1,3.64-.44A14.37,14.37,0,0,1,54.92,36.67Z"/><path class="cls-3" d="M76.59,37.54l.2-3.49h6V59.36H76.9l-.31-3.7a7.25,7.25,0,0,1-3.44,3.24,11.57,11.57,0,0,1-4.78,1.23A12.78,12.78,0,0,1,59,56.66q-3.62-3.51-3.62-10,0-6.32,3.72-9.81a13.14,13.14,0,0,1,9.48-3.44,10.35,10.35,0,0,1,4.77,1.13A7.79,7.79,0,0,1,76.59,37.54ZM69.09,39a7.18,7.18,0,0,0-7.49,7.65,7.5,7.5,0,0,0,2.13,5.62,7.39,7.39,0,0,0,5.36,2.08,7.21,7.21,0,0,0,4.75-1.59A6.51,6.51,0,0,0,76.2,49a11.69,11.69,0,0,0,0-4.49,6.5,6.5,0,0,0-2.36-3.85A7.21,7.21,0,0,0,69.09,39Z"/><path class="cls-3" d="M109.59,59.36h-6.26V46.11a7.36,7.36,0,0,0-1.59-4.88,5.58,5.58,0,0,0-4.52-1.89,5.91,5.91,0,0,0-4.64,2,7.3,7.3,0,0,0-1.83,5V59.36H84.54V34h5.6l.41,3.44a11.78,11.78,0,0,1,8.32-3.8A10,10,0,0,1,106.54,37q3.06,3.31,3,9.11Z"/><path class="cls-3" d="M111.6,23.47h6.26v14a7.06,7.06,0,0,1,3.57-3,11.91,11.91,0,0,1,4.75-1.11,12.89,12.89,0,0,1,9.32,3.44q3.56,3.43,3.56,9.81,0,6.1-3.67,9.67A12.87,12.87,0,0,1,126,59.92q-5.53,0-8.16-4.05l-.41,3.49H111.6Zm14,15.82a7.21,7.21,0,0,0-5.18,2.07,7.07,7.07,0,0,0-2.16,5.32,7.15,7.15,0,0,0,7.34,7.44A6.94,6.94,0,0,0,130.72,52a7.23,7.23,0,0,0,2.08-5.36,7.24,7.24,0,0,0-2.05-5.37A7,7,0,0,0,125.61,39.29Z"/><path class="cls-3" d="M165.4,48.94H145.64a5.52,5.52,0,0,0,2.31,3.9,8.56,8.56,0,0,0,5.23,1.49,12.09,12.09,0,0,0,3.8-.65A7,7,0,0,0,160,52l4,4a12.17,12.17,0,0,1-4.87,3,18,18,0,0,1-6,1.05q-6.47,0-10.19-3.67t-3.72-9.83A13,13,0,0,1,142.84,37a13.16,13.16,0,0,1,9.78-3.69q6.51,0,10,4T165.4,48.94Zm-19.66-5.19h13.65a5.08,5.08,0,0,0-2-3.67,7.53,7.53,0,0,0-4.52-1.26,8,8,0,0,0-4.51,1.26A6.17,6.17,0,0,0,145.74,43.75Z"/><path class="cls-3" d="M166.84,34.05h5.8L173.1,37a6.84,6.84,0,0,1,3.08-2.87,10.59,10.59,0,0,1,4.06-.72,8.86,8.86,0,0,1,6.52,2.41l-2.83,5.44a6.82,6.82,0,0,0-4.52-1.64,6.59,6.59,0,0,0-4.51,1.57A6.09,6.09,0,0,0,173.1,46V59.36h-6.26Z"/><rect class="cls-1" x="54.75" y="82.03" width="64.51" height="6.06" rx="2.18" transform="translate(-34.66 86.43) rotate(-45)"/><path class="cls-3" d="M104.22,77.84a13.12,13.12,0,0,0-3.33-2.41c0,.06-.09.12-.14.17l-4.5,4.5a7.3,7.3,0,0,1,4,1.9Z"/><path class="cls-3" d="M100.63,92.78a7.46,7.46,0,0,1-5.54,2.11,7.17,7.17,0,0,1-5.14-2,6.85,6.85,0,0,1-2-4.56L83.32,93a3.2,3.2,0,0,1-.6.46,10.81,10.81,0,0,0,2.74,3.94,13.8,13.8,0,0,0,9.63,3.46,13.36,13.36,0,0,0,9.75-4Z"/></g></svg>